<svg xmlns="http://www.w3.org/2000/svg" width="22.132" height="18.512" viewBox="0 0 22.132 18.512">
  <g id="Groupe_74" data-name="Groupe 74" transform="translate(-1736.459 -782.198)">
    <path id="Tracé_31" data-name="Tracé 31" d="M1740.3,798.781l.883-1.216v-.088h-3.42V782.2h-1.3v16.583h3.841Z" transform="translate(0 0)" fill="#fff"/>
    <path id="Tracé_32" data-name="Tracé 32" d="M1772.244,794.566a4.576,4.576,0,0,0,2.923-4.128c0-3.069-3.251-4.457-3.251-4.457h-3.222l-2.537,3.459h3.561a1.461,1.461,0,0,1,1.327,1.613c0,.96-.408,1.961-1.266,1.961h-4.391v-2.526l-3.957,5.395V803.3h10.12c1.534,0,4.128-1.973,4.128-4.823S1772.244,794.566,1772.244,794.566Zm-2.181,5.21h-4.676V796.2H1770a1.494,1.494,0,0,1,1.414,1.613C1771.411,798.774,1770.976,799.775,1770.063,799.775Z" transform="translate(-17.087 -2.588)" fill="#fff"/>
  </g>
</svg>
