<svg xmlns="http://www.w3.org/2000/svg" width="40.943" height="62.366" viewBox="0 0 40.943 62.366">
  <g id="Groupe_76" data-name="Groupe 76" transform="translate(-710.143 -689.494)">
    <g id="Groupe_75" data-name="Groupe 75" transform="translate(710.652 690.003)">
      <path id="Tracé_19" data-name="Tracé 19" d="M154.269,348.224a6.721,6.721,0,0,1,2.141,3.589c.189,1.889-.252,3.4.629,5.666s2.267,5.478,2.267,8.437-.756,5.667,0,6.863a8.849,8.849,0,0,0,3.778,2.645c.819.252-.63.692-2.141.692s-2.582-1.385-3.022-.566-1.763,2.078-1.322,3.463a4.191,4.191,0,0,0,1.637,2.141c.378.378-.441,0-2.77-.63s-1.574-.63-2.644-1.637-2.267-1.07-3.967-.5-3.9,1.057-4.093,2.921-.622,1.36-1.507.793-1.83.252-2.081-.566.441-2.582-1.385-3.841-5.667-1.826-7.3-1.133-2.455,2.581-4.344,2.581-2.959-.126-4.093.5-.819-1.2,1.259-1.826A3.735,3.735,0,0,0,127.7,373.6a24.968,24.968,0,0,1-.441-6.8,21.834,21.834,0,0,1,1.574-6.382c.945-2.055,1.511-3.251,1.448-5.455s-.693-4.6,1.008-6.737a18.882,18.882,0,0,1,2.833-3.085c.567-.5.693-.566.315-1.259s-1.07-2.518-2.078-3.211.189-.818,1.133-.441a4.571,4.571,0,0,1,2.141,2.078c.441.819,1.008.756,2.33.189s5.289-.567,7.556.378a4.448,4.448,0,0,0,4.47-.063,14.6,14.6,0,0,1,6.611-.819c2.2.315,1.826,1.385.756,2.2S154.521,346.713,154.269,348.224Z" transform="translate(-123.399 -340.019)" fill="none" stroke="#fff" stroke-linecap="round" stroke-linejoin="round" stroke-width="1"/>
      <path id="Tracé_20" data-name="Tracé 20" d="M152.006,387.635s-1.6,5.926,0,6.235,2.267.052,2.886-1.236,1.649-3.813,1.649-3.813" transform="translate(-140.781 -369.687)" fill="none" stroke="#fff" stroke-linecap="round" stroke-linejoin="round" stroke-width="1"/>
      <path id="Tracé_21" data-name="Tracé 21" d="M157.193,389.547s-.349-1.494-3.292-2.164-2.622,1.082-2.622,1.082" transform="translate(-140.764 -369.435)" fill="none" stroke="#fff" stroke-linecap="round" stroke-linejoin="round" stroke-width="1"/>
      <ellipse id="Ellipse_720" data-name="Ellipse 720" cx="1.752" cy="0.928" rx="1.752" ry="0.928" transform="translate(29.849 14.746) rotate(-83.778)" fill="none" stroke="#fff" stroke-linecap="round" stroke-linejoin="round" stroke-width="0.6"/>
    </g>
    <path id="Tracé_34" data-name="Tracé 34" d="M0,5.53,4.031,0l4.02,5.53" transform="translate(735.14 751.36) rotate(180)" fill="none" stroke="#fff" stroke-linecap="round" stroke-linejoin="round" stroke-width="1"/>
  </g>
</svg>
