<svg xmlns="http://www.w3.org/2000/svg" width="39.46" height="42.011" viewBox="0 0 39.46 42.011">
  <g id="Groupe_62" data-name="Groupe 62" transform="translate(0.509 0.509)">
    <path id="Tracé_19" data-name="Tracé 19" d="M153.123,347.92a6.471,6.471,0,0,1,2.061,3.456c.182,1.819-.242,3.274.606,5.456s2.183,5.275,2.183,8.124-.728,5.456,0,6.608a8.521,8.521,0,0,0,3.637,2.546c.788.242-.606.667-2.061.667s-2.486-1.333-2.91-.545-1.7,2-1.273,3.334a4.035,4.035,0,0,0,1.576,2.061c.364.364-.424,0-2.668-.606s-1.516-.606-2.546-1.576-2.183-1.03-3.82-.485-3.759,1.018-3.941,2.813-.6,1.31-1.451.764-1.762.243-2-.545.424-2.486-1.334-3.7-5.456-1.758-7.033-1.091-2.364,2.485-4.183,2.485-2.849-.121-3.941.485-.788-1.152,1.213-1.758a3.6,3.6,0,0,0,2.3-4.062,24.041,24.041,0,0,1-.424-6.548,21.024,21.024,0,0,1,1.516-6.145c.91-1.978,1.455-3.13,1.394-5.252s-.667-4.426.97-6.487a18.18,18.18,0,0,1,2.728-2.971c.546-.485.667-.545.3-1.213s-1.031-2.425-2-3.092.182-.788,1.091-.424a4.4,4.4,0,0,1,2.061,2c.425.788.97.728,2.243.182a12.7,12.7,0,0,1,7.275.364,4.283,4.283,0,0,0,4.3-.061,14.058,14.058,0,0,1,6.365-.788c2.122.3,1.758,1.334.728,2.122S153.365,346.465,153.123,347.92Z" transform="translate(-123.399 -340.019)" fill="none" stroke="#fff" stroke-linecap="round" stroke-linejoin="round" stroke-width="1"/>
    <path id="Tracé_20" data-name="Tracé 20" d="M151.979,387.635s-1.538,5.706,0,6,2.183.05,2.779-1.19,1.587-3.671,1.587-3.671" transform="translate(-141.171 -370.354)" fill="none" stroke="#fff" stroke-linecap="round" stroke-linejoin="round" stroke-width="1"/>
    <path id="Tracé_21" data-name="Tracé 21" d="M156.973,389.461s-.336-1.439-3.169-2.084-2.525,1.042-2.525,1.042" transform="translate(-141.154 -370.096)" fill="none" stroke="#fff" stroke-linecap="round" stroke-linejoin="round" stroke-width="1"/>
    <ellipse id="Ellipse_720" data-name="Ellipse 720" cx="1.687" cy="0.893" rx="1.687" ry="0.893" transform="translate(28.74 14.198) rotate(-83.778)" fill="none" stroke="#fff" stroke-linecap="round" stroke-linejoin="round" stroke-width="1"/>
  </g>
</svg>
