<svg xmlns="http://www.w3.org/2000/svg" width="38.46" height="41.016" viewBox="0 0 38.46 41.016">
  <path id="Tracé_30" data-name="Tracé 30" d="M288.9,373.317a8.408,8.408,0,0,1-3.506-2.448c-.426-.675-.3-1.99-.155-3.512.086-.894.183-1.908.183-2.942,0-2.6-1.116-5.426-1.93-7.493l-.245-.625a8.88,8.88,0,0,1-.539-3.673,15.3,15.3,0,0,0-.051-1.688,6.355,6.355,0,0,0-2.026-3.473c.29-1.365,1.921-2.92,2.859-3.637.673-.515.979-1.048.861-1.5-.123-.473-.684-.784-1.666-.925a14.151,14.151,0,0,0-6.4.793l-.186.078a3.972,3.972,0,0,1-3.942-.018,12.617,12.617,0,0,0-7.351-.36c-1.282.549-1.654.531-1.994-.1a4.527,4.527,0,0,0-2.135-2.065c-.568-.227-1.459-.345-1.657.024-.112.209.025.449.407.711a6.611,6.611,0,0,1,1.657,2.458c.1.216.193.4.27.545.276.506.276.506-.191.919l-.2.181a18.579,18.579,0,0,0-2.592,2.849c-1.353,1.7-1.212,3.543-1.075,5.321.033.424.064.824.075,1.226A9.9,9.9,0,0,1,256.035,359l-.041.089a21.092,21.092,0,0,0-1.517,6.144,24.064,24.064,0,0,0,.425,6.558,3.378,3.378,0,0,1-2.162,3.809,2.594,2.594,0,0,0-1.938,1.672.463.463,0,0,0,.16.474c.118.082.337.136.716-.074a5.642,5.642,0,0,1,3.049-.463c.241,0,.5.005.77.005a3.915,3.915,0,0,0,2.637-1.344,5.879,5.879,0,0,1,1.579-1.134c1.522-.644,5.144-.077,6.8,1.064a2.814,2.814,0,0,1,1.181,2.707,3.035,3.035,0,0,0,.071.864c.171.555.627.516,1.027.48a1.536,1.536,0,0,1,1.035.159c.081.052.159.1.232.153a1.663,1.663,0,0,0,.79.371.442.442,0,0,0,.192-.043c.273-.128.413-.513.5-1.371.15-1.475,1.729-1.978,3.256-2.465.179-.057.356-.113.527-.171,1.645-.548,2.691-.421,3.606.441a4.351,4.351,0,0,1,.543.609c.332.439.483.571,2.057,1,.742.2,1.327.376,1.754.5.926.277,1.069.319,1.173.145.09-.15-.049-.289-.109-.348a3.615,3.615,0,0,0-.294-.252,3.265,3.265,0,0,1-1.225-1.718,3.023,3.023,0,0,1,.832-2.528,6.923,6.923,0,0,0,.416-.638c.129-.241.308-.195.952.116a4.049,4.049,0,0,0,1.774.519c.736,0,2.374-.162,2.446-.642C289.267,373.573,289.221,373.416,288.9,373.317Zm-22.206-14.249a.18.18,0,0,1-.216-.133,1.743,1.743,0,0,0-.409-.637c-.274.664-1,2.4-1.467,3.378a1.974,1.974,0,0,1-1.946,1.392,5.361,5.361,0,0,1-1-.113.8.8,0,0,1-.536-.387c-.678-1.086.035-4.331.3-5.426l-.01.009a.806.806,0,0,0-.224.68.18.18,0,0,1-.354.064,1.175,1.175,0,0,1,.326-1c.44-.421,1.245-.5,2.393-.24a5.766,5.766,0,0,1,2.513,1.136.172.172,0,0,1,.018,0,.179.179,0,0,1,.1.1,2.154,2.154,0,0,1,.647.956A.18.18,0,0,1,266.694,359.068Zm14.886-6.748a2.764,2.764,0,0,1-.416,1.229.972.972,0,0,1-.771.5.708.708,0,0,1-.073,0,.932.932,0,0,1-.717-.667,3,3,0,0,1,.275-2.518.922.922,0,0,1,.844-.5.932.932,0,0,1,.717.667A2.755,2.755,0,0,1,281.58,352.32Z" transform="translate(-250.793 -339.518)" fill="#fff"/>
</svg>
