<svg id="Logo" xmlns="http://www.w3.org/2000/svg" width="18.917" height="18.863" viewBox="0 0 18.917 18.863">
  <path id="Tracé_8" data-name="Tracé 8" d="M145.812,185.877a4.833,4.833,0,0,1-.679-.047,6.726,6.726,0,0,1-5.341-3.654c-1.245-2.557-.864-5.916,1.043-9.216a12.413,12.413,0,0,1,10.535-5.941,6.346,6.346,0,0,1,5.807,3.463,6.184,6.184,0,0,1-.455,6.847,8.526,8.526,0,0,1-1.974,1.872l2.948,5.322a.745.745,0,1,1-1.3.722L153.1,179.3a.745.745,0,0,1,.311-1.023,7.08,7.08,0,0,0,2.145-1.88,4.747,4.747,0,0,0,.285-5.255,4.919,4.919,0,0,0-4.521-2.636,10.24,10.24,0,0,0-5.135,1.337,10.581,10.581,0,0,0-4.063,3.861c-1.656,2.864-2.018,5.714-.993,7.818a5.216,5.216,0,0,0,4.211,2.831,5,5,0,0,0,4.495-2.334,3.626,3.626,0,0,0,.68-3.549,3.06,3.06,0,0,0-2.633-1.247v5.568a.745.745,0,1,1-1.489,0v-6.327a.745.745,0,0,1,.728-.744c2.949-.066,4.188,1.076,4.708,2.047.748,1.4.452,3.353-.772,5.105A6.633,6.633,0,0,1,145.812,185.877Z" transform="translate(-139.071 -167.015)" fill="#fff"/>
</svg>
